<svg xmlns="http://www.w3.org/2000/svg" xmlns:xlink="http://www.w3.org/1999/xlink" id="visual" viewBox="0 0 900 600" width="900" height="600"><rect x="0" y="0" width="900" height="600" fill="#262626"></rect><path d="M0 387L21.5 387.2C43 387.3 86 387.7 128.8 393.8C171.7 400 214.3 412 257.2 431.2C300 450.3 343 476.7 385.8 481.2C428.7 485.7 471.3 468.3 514.2 447.5C557 426.7 600 402.3 642.8 409.2C685.7 416 728.3 454 771.2 472.2C814 490.3 857 488.7 878.5 487.8L900 487L900 601L878.5 601C857 601 814 601 771.2 601C728.3 601 685.7 601 642.8 601C600 601 557 601 514.2 601C471.3 601 428.7 601 385.8 601C343 601 300 601 257.2 601C214.3 601 171.7 601 128.8 601C86 601 43 601 21.5 601L0 601Z" fill="#202020" stroke-linecap="round" stroke-linejoin="miter"></path></svg>