<svg xmlns="http://www.w3.org/2000/svg" xmlns:xlink="http://www.w3.org/1999/xlink" id="visual" viewBox="0 0 900 600" width="900" height="600"><rect x="0" y="0" width="900" height="600" fill="#f8f8f8"></rect><path d="M0 440L15 443C30 446 60 452 90 447.8C120 443.7 150 429.3 180 419.7C210 410 240 405 270 410.5C300 416 330 432 360 445.7C390 459.3 420 470.7 450 479C480 487.3 510 492.7 540 478.3C570 464 600 430 630 425.7C660 421.3 690 446.7 720 450C750 453.3 780 434.7 810 431.7C840 428.7 870 441.3 885 447.7L900 454L900 601L885 601C870 601 840 601 810 601C780 601 750 601 720 601C690 601 660 601 630 601C600 601 570 601 540 601C510 601 480 601 450 601C420 601 390 601 360 601C330 601 300 601 270 601C240 601 210 601 180 601C150 601 120 601 90 601C60 601 30 601 15 601L0 601Z" fill="#f2f2f2" stroke-linecap="round" stroke-linejoin="miter"></path></svg>