<svg xmlns="http://www.w3.org/2000/svg" width="1195" height="143.4" viewBox="0 0 1000 120"><g fill="none" stroke="#0db22a" stroke-width="0.1" stroke-opacity="0.66"><path d="M-500 75c0 0 125-30 250-30S0 75 0 75s125 30 250 30s250-30 250-30s125-30 250-30s250 30 250 30s125 30 250 30s250-30 250-30"></path><path d="M-500 45c0 0 125-30 250-30S0 45 0 45s125 30 250 30s250-30 250-30s125-30 250-30s250 30 250 30s125 30 250 30s250-30 250-30"></path><path d="M-500 105c0 0 125-30 250-30S0 105 0 105s125 30 250 30s250-30 250-30s125-30 250-30s250 30 250 30s125 30 250 30s250-30 250-30"></path><path d="M-500 15c0 0 125-30 250-30S0 15 0 15s125 30 250 30s250-30 250-30s125-30 250-30s250 30 250 30s125 30 250 30s250-30 250-30"></path><path d="M-500-15c0 0 125-30 250-30S0-15 0-15s125 30 250 30s250-30 250-30s125-30 250-30s250 30 250 30s125 30 250 30s250-30 250-30"></path><path d="M-500 135c0 0 125-30 250-30S0 135 0 135s125 30 250 30s250-30 250-30s125-30 250-30s250 30 250 30s125 30 250 30s250-30 250-30"></path></g></svg>