<svg xmlns="http://www.w3.org/2000/svg" width="100%" height="100%" viewBox="0 0 100 60"><rect fill="#B0E5C5" width="100" height="60"></rect><g fill-opacity="1"><rect fill="#B0E5C5" width="11" height="11"></rect><rect fill="#b1e5c6" x="10" width="11" height="11"></rect><rect fill="#b3e6c7" y="10" width="11" height="11"></rect><rect fill="#b4e6c8" x="20" width="11" height="11"></rect><rect fill="#b6e7c9" x="10" y="10" width="11" height="11"></rect><rect fill="#b7e7ca" y="20" width="11" height="11"></rect><rect fill="#b8e8cb" x="30" width="11" height="11"></rect><rect fill="#bae8cc" x="20" y="10" width="11" height="11"></rect><rect fill="#bbe9cd" x="10" y="20" width="11" height="11"></rect><rect fill="#bce9ce" y="30" width="11" height="11"></rect><rect fill="#beeacf" x="40" width="11" height="11"></rect><rect fill="#bfead0" x="30" y="10" width="11" height="11"></rect><rect fill="#c0ead1" x="20" y="20" width="11" height="11"></rect><rect fill="#c2ebd2" x="10" y="30" width="11" height="11"></rect><rect fill="#c3ebd3" y="40" width="11" height="11"></rect><rect fill="#c4ecd4" x="50" width="11" height="11"></rect><rect fill="#c6ecd5" x="40" y="10" width="11" height="11"></rect><rect fill="#c7edd5" x="30" y="20" width="11" height="11"></rect><rect fill="#c9edd6" x="20" y="30" width="11" height="11"></rect><rect fill="#caeed7" x="10" y="40" width="11" height="11"></rect><rect fill="#cbeed8" y="50" width="11" height="11"></rect><rect fill="#cdeed9" x="60" width="11" height="11"></rect><rect fill="#ceefda" x="50" y="10" width="11" height="11"></rect><rect fill="#cfefdb" x="40" y="20" width="11" height="11"></rect><rect fill="#d1f0dc" x="30" y="30" width="11" height="11"></rect><rect fill="#d2f0dd" x="20" y="40" width="11" height="11"></rect><rect fill="#d3f1de" x="10" y="50" width="11" height="11"></rect><rect fill="#d5f1df" x="70" width="11" height="11"></rect><rect fill="#d6f2e0" x="60" y="10" width="11" height="11"></rect><rect fill="#d7f2e1" x="50" y="20" width="11" height="11"></rect><rect fill="#d9f2e2" x="40" y="30" width="11" height="11"></rect><rect fill="#daf3e3" x="30" y="40" width="11" height="11"></rect><rect fill="#dbf3e4" x="20" y="50" width="11" height="11"></rect><rect fill="#ddf4e5" x="80" width="11" height="11"></rect><rect fill="#def4e6" x="70" y="10" width="11" height="11"></rect><rect fill="#dff5e7" x="60" y="20" width="11" height="11"></rect><rect fill="#e1f5e8" x="50" y="30" width="11" height="11"></rect><rect fill="#e2f6e9" x="40" y="40" width="11" height="11"></rect><rect fill="#e3f6ea" x="30" y="50" width="11" height="11"></rect><rect fill="#e5f6eb" x="90" width="11" height="11"></rect><rect fill="#e6f7ec" x="80" y="10" width="11" height="11"></rect><rect fill="#e7f7ed" x="70" y="20" width="11" height="11"></rect><rect fill="#e9f8ee" x="60" y="30" width="11" height="11"></rect><rect fill="#eaf8ef" x="50" y="40" width="11" height="11"></rect><rect fill="#ebf9f0" x="40" y="50" width="11" height="11"></rect><rect fill="#edf9f1" x="90" y="10" width="11" height="11"></rect><rect fill="#eef9f2" x="80" y="20" width="11" height="11"></rect><rect fill="#effaf3" x="70" y="30" width="11" height="11"></rect><rect fill="#f0faf4" x="60" y="40" width="11" height="11"></rect><rect fill="#f2fbf5" x="50" y="50" width="11" height="11"></rect><rect fill="#f3fbf6" x="90" y="20" width="11" height="11"></rect><rect fill="#f4fcf7" x="80" y="30" width="11" height="11"></rect><rect fill="#f6fcf8" x="70" y="40" width="11" height="11"></rect><rect fill="#f7fcf9" x="60" y="50" width="11" height="11"></rect><rect fill="#f8fdfa" x="90" y="30" width="11" height="11"></rect><rect fill="#fafdfb" x="80" y="40" width="11" height="11"></rect><rect fill="#fbfefc" x="70" y="50" width="11" height="11"></rect><rect fill="#fcfefd" x="90" y="40" width="11" height="11"></rect><rect fill="#fefffe" x="80" y="50" width="11" height="11"></rect><rect fill="#FFFFFF" x="90" y="50" width="11" height="11"></rect></g></svg>