<svg xmlns="http://www.w3.org/2000/svg" xmlns:xlink="http://www.w3.org/1999/xlink" id="visual" viewBox="0 0 900 600" width="900" height="600"><path d="M0 67L18.8 73C37.7 79 75.3 91 112.8 90C150.3 89 187.7 75 225.2 70C262.7 65 300.3 69 337.8 71C375.3 73 412.7 73 450.2 74C487.7 75 525.3 77 562.8 82C600.3 87 637.7 95 675.2 102C712.7 109 750.3 115 787.8 104C825.3 93 862.7 65 881.3 51L900 37L900 0L881.3 0C862.7 0 825.3 0 787.8 0C750.3 0 712.7 0 675.2 0C637.7 0 600.3 0 562.8 0C525.3 0 487.7 0 450.2 0C412.7 0 375.3 0 337.8 0C300.3 0 262.7 0 225.2 0C187.7 0 150.3 0 112.8 0C75.3 0 37.7 0 18.8 0L0 0Z" fill="#f2fcf6"></path><path d="M0 103L18.8 113C37.7 123 75.3 143 112.8 154C150.3 165 187.7 167 225.2 164C262.7 161 300.3 153 337.8 143C375.3 133 412.7 121 450.2 118C487.7 115 525.3 121 562.8 139C600.3 157 637.7 187 675.2 191C712.7 195 750.3 173 787.8 152C825.3 131 862.7 111 881.3 101L900 91L900 35L881.3 49C862.7 63 825.3 91 787.8 102C750.3 113 712.7 107 675.2 100C637.7 93 600.3 85 562.8 80C525.3 75 487.7 73 450.2 72C412.7 71 375.3 71 337.8 69C300.3 67 262.7 63 225.2 68C187.7 73 150.3 87 112.8 88C75.3 89 37.7 77 18.8 71L0 65Z" fill="#e6f9ee"></path><path d="M0 211L18.8 226C37.7 241 75.3 271 112.8 289C150.3 307 187.7 313 225.2 315C262.7 317 300.3 315 337.8 297C375.3 279 412.7 245 450.2 225C487.7 205 525.3 199 562.8 209C600.3 219 637.7 245 675.2 246C712.7 247 750.3 223 787.8 203C825.3 183 862.7 167 881.3 159L900 151L900 89L881.3 99C862.7 109 825.3 129 787.8 150C750.3 171 712.7 193 675.2 189C637.7 185 600.3 155 562.8 137C525.3 119 487.7 113 450.2 116C412.7 119 375.3 131 337.8 141C300.3 151 262.7 159 225.2 162C187.7 165 150.3 163 112.8 152C75.3 141 37.7 121 18.8 111L0 101Z" fill="#d3f4e1"></path><path d="M0 487L18.8 474C37.7 461 75.3 435 112.8 441C150.3 447 187.7 485 225.2 484C262.7 483 300.3 443 337.8 406C375.3 369 412.7 335 450.2 331C487.7 327 525.3 353 562.8 371C600.3 389 637.7 399 675.2 416C712.7 433 750.3 457 787.8 430C825.3 403 862.7 325 881.3 286L900 247L900 149L881.3 157C862.7 165 825.3 181 787.8 201C750.3 221 712.7 245 675.2 244C637.7 243 600.3 217 562.8 207C525.3 197 487.7 203 450.2 223C412.7 243 375.3 277 337.8 295C300.3 313 262.7 315 225.2 313C187.7 311 150.3 305 112.8 287C75.3 269 37.7 239 18.8 224L0 209Z" fill="#e6f9ee"></path><path d="M0 601L18.8 601C37.7 601 75.3 601 112.8 601C150.3 601 187.7 601 225.2 601C262.7 601 300.3 601 337.8 601C375.3 601 412.7 601 450.2 601C487.7 601 525.3 601 562.8 601C600.3 601 637.7 601 675.2 601C712.7 601 750.3 601 787.8 601C825.3 601 862.7 601 881.3 601L900 601L900 245L881.3 284C862.7 323 825.3 401 787.8 428C750.3 455 712.7 431 675.2 414C637.7 397 600.3 387 562.8 369C525.3 351 487.7 325 450.2 329C412.7 333 375.3 367 337.8 404C300.3 441 262.7 481 225.2 482C187.7 483 150.3 445 112.8 439C75.3 433 37.7 459 18.8 472L0 485Z" fill="#f2fcf6"></path></svg>