<svg xmlns="http://www.w3.org/2000/svg" xmlns:xlink="http://www.w3.org/1999/xlink" id="visual" viewBox="0 0 960 540" width="960" height="540"><path d="M0 255L20 244.2C40 233.3 80 211.7 120 180.2C160 148.7 200 107.3 240 113.7C280 120 320 174 360 199.2C400 224.3 440 220.7 480 210.7C520 200.7 560 184.3 600 195.2C640 206 680 244 720 249.5C760 255 800 228 840 214.5C880 201 920 201 940 201L960 201L960 0L940 0C920 0 880 0 840 0C800 0 760 0 720 0C680 0 640 0 600 0C560 0 520 0 480 0C440 0 400 0 360 0C320 0 280 0 240 0C200 0 160 0 120 0C80 0 40 0 20 0L0 0Z" fill="#f2fcf6"></path><path d="M0 325L20 319.7C40 314.3 80 303.7 120 274C160 244.3 200 195.7 240 189.3C280 183 320 219 360 247.8C400 276.7 440 298.3 480 294.7C520 291 560 262 600 261C640 260 680 287 720 291.5C760 296 800 278 840 267.2C880 256.3 920 252.7 940 250.8L960 249L960 199L940 199C920 199 880 199 840 212.5C800 226 760 253 720 247.5C680 242 640 204 600 193.2C560 182.3 520 198.7 480 208.7C440 218.7 400 222.3 360 197.2C320 172 280 118 240 111.7C200 105.3 160 146.7 120 178.2C80 209.7 40 231.3 20 242.2L0 253Z" fill="#e6f9ee"></path><path d="M0 374L20 383C40 392 80 410 120 393.7C160 377.3 200 326.7 240 314C280 301.3 320 326.7 360 340.2C400 353.7 440 355.3 480 348.2C520 341 560 325 600 336.8C640 348.7 680 388.3 720 390.2C760 392 800 356 840 347C880 338 920 356 940 365L960 374L960 247L940 248.8C920 250.7 880 254.3 840 265.2C800 276 760 294 720 289.5C680 285 640 258 600 259C560 260 520 289 480 292.7C440 296.3 400 274.7 360 245.8C320 217 280 181 240 187.3C200 193.7 160 242.3 120 272C80 301.7 40 312.3 20 317.7L0 323Z" fill="#d3f4e1"></path><path d="M0 455L20 460.3C40 465.7 80 476.3 120 481.7C160 487 200 487 240 482.5C280 478 320 469 360 466.3C400 463.7 440 467.3 480 467.3C520 467.3 560 463.7 600 470C640 476.3 680 492.7 720 491.8C760 491 800 473 840 469.3C880 465.7 920 476.3 940 481.7L960 487L960 372L940 363C920 354 880 336 840 345C800 354 760 390 720 388.2C680 386.3 640 346.7 600 334.8C560 323 520 339 480 346.2C440 353.3 400 351.7 360 338.2C320 324.7 280 299.3 240 312C200 324.7 160 375.3 120 391.7C80 408 40 390 20 381L0 372Z" fill="#e6f9ee"></path><path d="M0 541L20 541C40 541 80 541 120 541C160 541 200 541 240 541C280 541 320 541 360 541C400 541 440 541 480 541C520 541 560 541 600 541C640 541 680 541 720 541C760 541 800 541 840 541C880 541 920 541 940 541L960 541L960 485L940 479.7C920 474.3 880 463.7 840 467.3C800 471 760 489 720 489.8C680 490.7 640 474.3 600 468C560 461.7 520 465.3 480 465.3C440 465.3 400 461.7 360 464.3C320 467 280 476 240 480.5C200 485 160 485 120 479.7C80 474.3 40 463.7 20 458.3L0 453Z" fill="#f2fcf6"></path></svg>