<svg xmlns="http://www.w3.org/2000/svg" width="188.94" height="20.37" viewBox="0 0 188.94 20.37">
  <g id="Group_3" data-name="Group 3" transform="translate(-78.739 14.736)">
    <path id="Path_4" data-name="Path 4" d="M14.73,0h2.79l4.56-14.49H19.26L15.96-3.45,12.33-14.49H9.99L6.36-3.45,3.06-14.49H.24L4.8,0H7.59l3.57-11.13ZM30,.36c4.53,0,7.32-3.42,7.32-7.62,0-4.17-2.79-7.59-7.32-7.59-4.5,0-7.32,3.42-7.32,7.59C22.68-3.06,25.5.36,30,.36Zm0-2.4c-2.88,0-4.5-2.46-4.5-5.22,0-2.73,1.62-5.19,4.5-5.19,2.91,0,4.5,2.46,4.5,5.19C34.5-4.5,32.91-2.04,30-2.04ZM39.84,0h2.7V-10.08a5.119,5.119,0,0,1,3.81-2.1,4.249,4.249,0,0,1,.93.09v-2.73a6.155,6.155,0,0,0-4.74,2.55v-2.22h-2.7ZM58.8,0h3.42l-6.3-7.92,6.24-6.57H58.77L51.78-7.14V-20.01h-2.7V0h2.7V-4.02l2.19-2.22Zm3.48-1.89A8.244,8.244,0,0,0,68.31.36c3.81,0,5.85-1.95,5.85-4.44,0-3.33-3-4.02-5.52-4.59-1.8-.42-3.36-.84-3.36-2.1,0-1.17,1.14-1.89,2.97-1.89a5.648,5.648,0,0,1,4.29,1.77l1.2-1.89a7.755,7.755,0,0,0-5.52-2.07c-3.54,0-5.52,1.98-5.52,4.29,0,3.12,2.88,3.78,5.34,4.35,1.86.42,3.51.9,3.51,2.34,0,1.23-1.08,2.07-3.12,2.07a7.02,7.02,0,0,1-4.86-2.07Zm13.5-5.37c0,4.35,3,7.62,7.38,7.62a6.33,6.33,0,0,0,5.43-2.55l-1.8-1.65a4.118,4.118,0,0,1-3.51,1.8c-2.85,0-4.68-2.22-4.68-5.22s1.83-5.19,4.68-5.19a4.047,4.047,0,0,1,3.51,1.8l1.8-1.65a6.33,6.33,0,0,0-5.43-2.55A7.209,7.209,0,0,0,75.78-7.26ZM97.08.36c4.53,0,7.32-3.42,7.32-7.62,0-4.17-2.79-7.59-7.32-7.59-4.5,0-7.32,3.42-7.32,7.59C89.76-3.06,92.58.36,97.08.36Zm0-2.4c-2.88,0-4.5-2.46-4.5-5.22,0-2.73,1.62-5.19,4.5-5.19,2.91,0,4.5,2.46,4.5,5.19C101.58-4.5,99.99-2.04,97.08-2.04ZM116.7,0h2.7V-14.49h-2.7V-4.08a5.237,5.237,0,0,1-4.02,2.04c-1.86,0-3.06-.72-3.06-3.12v-9.33h-2.7V-4.26c0,3.06,1.53,4.62,4.62,4.62a7.159,7.159,0,0,0,5.16-2.34Zm10.08.36a3.845,3.845,0,0,0,2.82-.93l-.69-2.04a2.077,2.077,0,0,1-1.47.57c-.93,0-1.41-.75-1.41-1.77v-8.31h2.94v-2.37h-2.94v-3.96h-2.7v3.96h-2.4v2.37h2.4v8.91C123.33-.93,124.5.36,126.78.36Z" transform="translate(78.499 5.274)" fill="#fff"/>
    <path id="Path_3" data-name="Path 3" d="M1.59-7.26C1.59-3.03,4.38.36,8.64.36a5.927,5.927,0,0,0,5.13-2.49l-1.08-.96A4.613,4.613,0,0,1,8.73-1.05c-3.39,0-5.46-2.73-5.46-6.21s2.07-6.18,5.46-6.18a4.584,4.584,0,0,1,3.96,2.01l1.08-.96a5.98,5.98,0,0,0-5.13-2.46C4.38-14.85,1.59-11.49,1.59-7.26ZM22.47.36c4.29,0,6.99-3.39,6.99-7.62s-2.7-7.59-6.99-7.59c-4.23,0-6.96,3.36-6.96,7.59S18.24.36,22.47.36Zm0-1.41c-3.36,0-5.28-2.97-5.28-6.21,0-3.21,1.92-6.18,5.28-6.18,3.42,0,5.31,2.97,5.31,6.18C27.78-4.02,25.89-1.05,22.47-1.05ZM32.58,0h1.56V-10.56a5.521,5.521,0,0,1,4.11-2.58,3.293,3.293,0,0,1,.78.06v-1.71A6.225,6.225,0,0,0,34.14-12v-2.49H32.58Zm7.77-7.26c0,4.47,3.03,7.62,7.26,7.62a7.474,7.474,0,0,0,5.67-2.34L52.47-3A6.367,6.367,0,0,1,47.73-.99c-3.42,0-5.52-2.61-5.67-5.76H54.18v-.42c0-4.17-2.43-7.68-6.84-7.68C43.32-14.85,40.35-11.46,40.35-7.26Zm6.96-6.24c3.63,0,5.25,3.06,5.28,5.52H42.06C42.18-10.5,43.89-13.5,47.31-13.5Z" transform="translate(213.499 5.274)" fill="#9b9b9b"/>
  </g>
</svg>
